<svg xmlns="http://www.w3.org/2000/svg" viewBox="1 2.85 46.35 43.15" height="500px" width="500px">
  <path id="baju"  fill="orange" d="M1 46C2 42 4 34 10 31 15 29 32 23 42 31 47 36 48 39 47 46Z"/>
  <path id="rambut" fill="black" d="M18 17C12 9 21 3 25 3 29 3 37 6 34 15 34 16 32 17 32 17 32 17 32 12 32 12 32 12 32 10 31 8 29 7 27 7 25 7 23 7 22 7 20 8 19 9 18 12 18 12 18 12 18 14 18 17"/>
  <path id="kuping kiri" fill="#ffdbac" d="M16 16C16 18 17 20 18 21 18 18 18 17 18 15 17 15 16 15 16 16Z"/>
  <path  id="kuping kanan" fill="#ffdbac" d="M32 16C32 16 33 15 34 15 36 15 34 21 33 21 33 21 32 21 32 21 32 21 32 18 32 16"/>
  <path id="leher" fill="#ffdbac" d="M21 26C21 28 20 29 20 30 22 40 29 33 35 28 33 27 31 26 31 23 30 25 30 25 29 26 27 28 23 28 21 26"/>
  <path id="wajah" fill="#ffdbac" d="M20 8C22 7 23 7 25 7 27 7 29 7 31 8 32 10 32 12 32 12 33 14 34 21 29 26 27 28 23 28 21 26 19 24 18 22 18 21 17 16 18 12 18 12 18 12 19 9 20 8"/>
  <path id="kacamata" fill="black" d="M17 14C20 14 22 14 25 14 26 14 29 14 33 14L33 15 31 16C30 18 25 18 25 15L24 15C24 18 21 18 19 17 18 16 17 15 17 15ZM19 15 19 16C20 17 22 17 23 16 23 15 23 15 23 15 22 15 21 15 19 15M26 15C26 16 26 16 26 16 27 17 29 17 30 16 30 14 30 14 30 15 28 15 27 15 26 15"/>
  <path id="kumis" d="M24 20C23 20 22 21 21 22L21 23C22 22 24 22 25 22 26 22 27 22 29 23L29 22C28 21 26 20 25 20 24 20 24 20 24 20"/>
  <path id="jenggot" d="M25 25C26 27 27 27 29 26 27 31 22 31 21 26 23 27 24 26 24 25 24.6667 25 25 25 24 25"/>
</svg>
